<svg id="Layer_1" data-name="Layer 1" xmlns="http://www.w3.org/2000/svg" viewBox="0 0 463.19 216.32"><defs><style>.cls-1{fill:none;stroke:#0d2c24;stroke-miterlimit:10;stroke-width:2px;}</style></defs><path class="cls-1" d="M91.29,70.68v86.53c0,44.3-19,60.52-43.15,60.52-14.38,0-36.07-18.72-36.07-25.58,0-5.25,5-14.38,11.64-14.38,5.94-.46,16.26,6.76,16.51,14.75.18,6.13-8,8.37-2.24,13.86l.13.12c13,8.78,17.09-8.22,17.09-24.85v-79C55.2,86,58,69.25,44.67,69.09a1.54,1.54,0,0,1-1.05-.44h0a1.48,1.48,0,0,1-.07-2C53,55.61,80.72,53.2,84.19,54.35c3.14,1,6.86,6.94,7.08,15.61Z" transform="translate(-11.07 -2.41)"/><path class="cls-1" d="M216,97.45c11.47,36.08-4.6,66-37.61,75.45C143.17,183,115.72,168,103.54,129.58c-10.24-32.91,5.83-62.87,38.62-72.24C177.59,47.22,205,62.19,216,97.45Zm-75.5,22.27c14.1,38.33,30.48,52.49,38.87,49.37s13.8-24.19-.45-62.24C165.55,70.87,149.34,58,141.62,61,133.24,64.08,127.8,85.17,140.49,119.72Z" transform="translate(-11.07 -2.41)"/><path class="cls-1" d="M381.87,121.79c-2.31-8.54-13.07-32.28-18.59-37.76-3.12-3.12-8.38-10.66-14.92-10.76h0a1.68,1.68,0,0,1-1.68-.88h0c-.44-.75,1-2.65,1.41-3.09,17.27-17.79,33.91-17.68,41-15.85,4.9,1.27,7.36,12.64,12.19,28.73h0l22.78,77c.59,2.29,1.13.17,1.9-1.26a92.29,92.29,0,0,0,5.3-12.46c3.32-9.2,6.65-18.68,7.13-20,11.81-32.59,11.9-51.56-11.86-52.29a2.53,2.53,0,0,1-1.47-.5h0a1.78,1.78,0,0,1-.42-2.31c7-11.05,38.43-18.72,42.17-17,11.73,5.52,6.9,43-9.2,82.12s-38.42,81-64.4,81c-9,0-18.18-10.12-25.31-17.94a9.65,9.65,0,0,1-2.53-6.44c0-5.52,5.06-14,11.74-14.49,6-.46,15.19,6,15.41,14,.22,7.13-4.1,11.78.27,15.19,5.07,4.14,15.83-2.35,12.61-12.47Z" transform="translate(-11.07 -2.41)"/><path class="cls-1" d="M230.61,72.82V54.58c0-19,4.17-16.13-14.1-25a2.05,2.05,0,0,1-.47-.29h0a1.9,1.9,0,0,1,0-2.58C226,15.68,260.42,2,263.7,3.53c3,1.37,3,11,3,25.3l.23,132a.14.14,0,0,1,0,.09c-.39,6.37,3.06,10.11,6,10.62s5.46.8,5.46,3.65h0a.63.63,0,0,1-.63.63H219.89s-.64,0-.64-.34h0c0-2.85,1.64-2.93,5.77-4.3,2.78-.95,5.36-2.41,5.59-10Z" transform="translate(-11.07 -2.41)"/><path class="cls-1" d="M60.73,42.12,44.53,28.69a4.8,4.8,0,0,1-.23-6.79l16.43-17a4.81,4.81,0,0,1,6.78-.24L83.72,19.13A4.8,4.8,0,0,1,84,25.9h0l-16.44,16a4.79,4.79,0,0,1-6.78.24Z" transform="translate(-11.07 -2.41)"/><path class="cls-1" d="M300.78,72.82V54.58c0-19,4.18-16.13-14.09-25a2.05,2.05,0,0,1-.47-.29h0a1.9,1.9,0,0,1-.06-2.58C296.2,15.68,330.6,2,333.88,3.53c3,1.37,3,11,3,25.3l.23,132v.08c-.39,6.37,3.06,10.11,5.94,10.62s5.47.8,5.47,3.65h0a.63.63,0,0,1-.63.63H290.05s-.64,0-.64-.34h0c0-2.85,1.65-2.93,5.77-4.3,2.78-.95,5.37-2.41,5.59-10Z" transform="translate(-11.07 -2.41)"/></svg>