<svg id="Layer_1" data-name="Layer 1" xmlns="http://www.w3.org/2000/svg" viewBox="0 0 485.78 225.75"><defs><style>.cls-1{fill:#fff7d7;}</style></defs><path class="cls-1" d="M83.45,70.86V162c0,46.66-20,63.74-45.45,63.74-15.15,0-38-19.72-38-26.94,0-5.53,5.29-15.15,12.26-15.15,6.26-.48,17.13,7.12,17.39,15.54.19,6.46-8.38,8.82-2.36,14.6l.14.12c13.65,9.25,18-8.65,18-26.17V104.5c0-17.53,3-35.14-11.09-35.31a1.61,1.61,0,0,1-1.1-.46h0a1.56,1.56,0,0,1-.08-2.12C43.16,55,72.31,52.45,76,53.66c3.31,1.1,7.22,7.31,7.46,16.45Z" transform="translate(0 0)"/><path class="cls-1" d="M214.8,99.06c12.08,38-4.85,69.53-39.62,79.47-37.09,10.6-66-5.17-78.83-45.63C85.56,98.24,102.49,66.68,137,56.81,174.35,46.15,203.24,61.92,214.8,99.06Zm-79.53,23.46c14.85,40.37,32.11,55.29,40.94,52S190.75,149,175.74,109c-14.07-37.9-31.15-51.41-39.28-48.35C127.63,63.91,121.9,86.13,135.27,122.52Z" transform="translate(0 0)"/><path class="cls-1" d="M389.52,124.7c-2.43-9-13.77-34-19.58-39.77-3.29-3.29-8.83-11.23-15.72-11.34h0a1.77,1.77,0,0,1-1.77-.93h0c-.46-.79,1.05-2.79,1.49-3.25,18.19-18.74,35.72-18.62,43.14-16.7C402.24,54.05,404.83,66,409.92,83h0l24,81.12c.62,2.41,1.19.18,2-1.32a99.11,99.11,0,0,0,5.58-13.13c3.5-9.69,7-19.68,7.51-21.08,12.44-34.32,12.53-54.3-12.49-55.07A2.71,2.71,0,0,1,435,73h0a1.86,1.86,0,0,1-.44-2.43C441.87,58.9,475,50.82,478.94,52.68c12.36,5.82,7.27,45.31-9.69,86.5s-40.46,85.28-67.83,85.28c-9.45,0-19.15-10.66-26.66-18.9a10.13,10.13,0,0,1-2.66-6.78c0-5.82,5.33-14.78,12.36-15.27,6.3-.48,16,6.3,16.23,14.78.24,7.51-4.31,12.41.29,16,5.34,4.36,16.67-2.47,13.28-13.13Z" transform="translate(0 0)"/><path class="cls-1" d="M230.19,73.12V53.91c0-20,4.4-17-14.85-26.3a2.22,2.22,0,0,1-.49-.3h0a2,2,0,0,1,0-2.72C225.37,12.93,261.59-1.5,265.05.13c3.13,1.45,3.13,11.63,3.13,26.65l.24,139a.14.14,0,0,1,0,.09c-.41,6.71,3.22,10.65,6.27,11.19s5.75.84,5.75,3.84h0a.67.67,0,0,1-.67.67H218.9s-.67,0-.67-.36h0c0-3,1.73-3.09,6.08-4.53,2.92-1,5.64-2.54,5.88-10.5Z" transform="translate(0 0)"/><path class="cls-1" d="M51.26,40.78,34.19,26.63A5.06,5.06,0,0,1,34,19.48L51.26,1.61a5.05,5.05,0,0,1,7.14-.25l17.07,15.2a5.05,5.05,0,0,1,.25,7.14h0L58.4,40.53a5.05,5.05,0,0,1-7.14.25Z" transform="translate(0 0)"/><path class="cls-1" d="M304.11,73.12V53.91c0-20,4.4-17-14.85-26.3a2.22,2.22,0,0,1-.49-.3h0a2,2,0,0,1-.06-2.72C299.28,12.93,335.51-1.5,339,.13c3.13,1.45,3.13,11.63,3.13,26.65l.24,139v.08c-.41,6.71,3.22,10.65,6.26,11.19s5.76.84,5.76,3.84h0a.67.67,0,0,1-.67.67H292.8s-.67,0-.67-.36h0c0-3,1.74-3.09,6.08-4.53,2.92-1,5.65-2.54,5.88-10.5Z" transform="translate(0 0)"/></svg>