<svg id="Layer_1" data-name="Layer 1" xmlns="http://www.w3.org/2000/svg" viewBox="0 0 485.8 225.72"><defs><style>.cls-1{fill:#fb2326;}</style></defs><path class="cls-1" d="M340.55,458v91.15c0,46.66-20,63.74-45.45,63.74-15.15,0-38-19.72-38-26.94,0-5.53,5.29-15.15,12.26-15.15,6.26-.48,17.13,7.12,17.39,15.54.19,6.46-8.38,8.82-2.36,14.6l.14.12c13.65,9.25,18-8.65,18-26.17V491.64c0-17.53,2.95-35.14-11.09-35.31a1.61,1.61,0,0,1-1.1-.46h0a1.56,1.56,0,0,1-.08-2.12c10-11.62,39.15-14.16,42.81-12.95,3.31,1.1,7.22,7.31,7.46,16.45Z" transform="translate(-257.1 -387.14)"/><path class="cls-1" d="M471.9,486.2c12.08,38-4.85,69.53-39.62,79.47-37.09,10.6-66-5.17-78.83-45.63-10.79-34.66,6.14-66.22,40.68-76.09C431.45,433.29,460.34,449.06,471.9,486.2Zm-79.53,23.46c14.85,40.37,32.11,55.29,40.94,52s14.54-25.48-.47-65.56c-14.07-37.9-31.15-51.41-39.28-48.35C384.73,451.05,379,473.27,392.37,509.66Z" transform="translate(-257.1 -387.14)"/><path class="cls-1" d="M646.62,511.84c-2.43-9-13.77-34-19.58-39.77-3.29-3.29-8.83-11.23-15.72-11.34h0a1.77,1.77,0,0,1-1.77-.93h0c-.46-.79,1.05-2.79,1.49-3.25,18.19-18.74,35.72-18.62,43.14-16.7,5.16,1.34,7.75,13.32,12.84,30.27v0l24,81.12c.62,2.41,1.19.18,2-1.32a98.64,98.64,0,0,0,5.58-13.13c3.5-9.69,7-19.68,7.51-21.08,12.44-34.32,12.53-54.3-12.49-55.07a2.68,2.68,0,0,1-1.55-.53h0a1.86,1.86,0,0,1-.44-2.43c7.34-11.64,40.47-19.72,44.41-17.86,12.36,5.82,7.27,45.31-9.69,86.5s-40.46,85.28-67.83,85.28c-9.45,0-19.15-10.66-26.66-18.9a10.13,10.13,0,0,1-2.66-6.78c0-5.82,5.33-14.78,12.36-15.27,6.3-.48,16,6.3,16.23,14.78.24,7.51-4.31,12.41.29,16,5.34,4.36,16.67-2.47,13.28-13.13Z" transform="translate(-257.1 -387.14)"/><path class="cls-1" d="M487.29,460.26V441.05c0-20,4.4-17-14.85-26.3a2,2,0,0,1-.49-.3h0a2,2,0,0,1-.05-2.72c10.57-11.66,46.79-26.09,50.25-24.46,3.13,1.45,3.13,11.63,3.13,26.65l.24,139a.27.27,0,0,1,0,.09c-.41,6.71,3.22,10.65,6.27,11.19s5.75.84,5.75,3.84h0a.67.67,0,0,1-.67.67H476s-.67,0-.67-.36h0c0-3,1.73-3.09,6.08-4.53,2.92-1,5.64-2.54,5.88-10.5Z" transform="translate(-257.1 -387.14)"/><path class="cls-1" d="M308.36,427.92l-17.07-14.15a5.06,5.06,0,0,1-.24-7.15l17.31-17.87a5.06,5.06,0,0,1,7.14-.25l17.07,15.2a5.05,5.05,0,0,1,.25,7.14L315.5,427.67A5.05,5.05,0,0,1,308.36,427.92Z" transform="translate(-257.1 -387.14)"/><path class="cls-1" d="M561.21,460.26V441.05c0-20,4.4-17-14.85-26.3a2,2,0,0,1-.49-.3h0a2,2,0,0,1-.06-2.72c10.57-11.66,46.8-26.09,50.26-24.46,3.13,1.45,3.13,11.63,3.13,26.65l.24,139V553c-.41,6.71,3.22,10.65,6.26,11.19s5.76.84,5.76,3.84h0a.67.67,0,0,1-.67.67H549.9s-.67,0-.67-.36h0c0-3,1.74-3.09,6.08-4.53,2.92-1,5.65-2.54,5.88-10.5Z" transform="translate(-257.1 -387.14)"/></svg>